<svg xmlns="http://www.w3.org/2000/svg" viewBox="0 0 200 220" fill="none">
  <ellipse cx="100" cy="205" rx="72" ry="14" fill="#86EFAC" opacity="0.4"/>
  <path d="M92 200h16V118c-10-4-18-16-18-30 0-18 14-32 32-32s32 14 32 32c0 14-8 26-18 30v82H92z" fill="#5D4037"/>
  <path d="M100 28c-42 6-72 40-72 82 0 32 18 60 44 74 8 4 18 6 28 6 50 0 90-44 90-98 0-48-36-88-82-94-4 12-6 24-6 38 0 20 6 38 16 52z" fill="url(#tg)"/>
  <ellipse cx="58" cy="100" rx="28" ry="36" fill="#14532D" opacity="0.35"/>
  <ellipse cx="145" cy="105" rx="30" ry="38" fill="#166534" opacity="0.3"/>
  <ellipse cx="100" cy="55" rx="36" ry="40" fill="#22C55E" opacity="0.25"/>
  <circle cx="100" cy="95" r="11" fill="#FDE68A"/>
  <circle cx="88" cy="92" r="2" fill="#1F2937"/>
  <circle cx="112" cy="92" r="2" fill="#1F2937"/>
  <path d="M94 102q6 4 12 0" stroke="#1F2937" stroke-width="1.2" fill="none"/>
  <defs>
    <linearGradient id="tg" x1="100" y1="28" x2="100" y2="190" gradientUnits="userSpaceOnUse">
      <stop stop-color="#86EFAC"/>
      <stop offset="0.5" stop-color="#22C55E"/>
      <stop offset="1" stop-color="#14532D"/>
    </linearGradient>
  </defs>
</svg>
