<svg xmlns="http://www.w3.org/2000/svg" viewBox="0 0 200 200" fill="none">
  <ellipse cx="100" cy="178" rx="60" ry="11" fill="#86EFAC" opacity="0.4"/>
  <path d="M96 175h8v-45c-6-2-10-8-10-15 0-10 8-18 18-18s18 8 18 18c0 7-4 13-10 15v45h-8z" fill="#92400E"/>
  <path d="M100 95c-18 4-32 20-32 38 0 14 8 26 20 32 4-18 18-32 36-36-10-8-16-20-16-34 0-4 1-8 2-12-6 4-10 12-10 20z" fill="#22C55E"/>
  <path d="M100 95c18 4 32 20 32 38 0 12-6 22-14 28-6-12-16-22-28-28 8-10 12-22 12-36 0-6-1-12-2-18z" fill="#16A34A"/>
  <ellipse cx="100" cy="72" rx="8" ry="10" fill="#FDE68A" opacity="0.9"/>
</svg>
